<?xml version="1.0" encoding="utf-8"?>
<!-- Generator: Adobe Illustrator 16.0.0, SVG Export Plug-In . SVG Version: 6.00 Build 0)  -->
<!DOCTYPE svg PUBLIC "-//W3C//DTD SVG 1.1//EN" "http://www.w3.org/Graphics/SVG/1.1/DTD/svg11.dtd">
<svg version="1.1" id="Layer_1" xmlns="http://www.w3.org/2000/svg" xmlns:xlink="http://www.w3.org/1999/xlink" x="0px" y="0px"
	 width="185.5px" height="53.25px" viewBox="4 155.741 185.5 53.25" enable-background="new 4 155.741 185.5 53.25"
	 xml:space="preserve">
<g>
	<path fill="#900F4F" d="M30.965,156.521C16.625,156.521,5,168.146,5,182.485v25.966h25.965c14.339,0,25.965-11.626,25.965-25.966
		v-25.965H30.965z M30.965,208.298c-14.256,0-25.813-11.556-25.813-25.813c0-14.255,11.557-25.812,25.813-25.812
		c14.255,0,25.812,11.557,25.812,25.812C56.777,196.742,45.221,208.298,30.965,208.298z"/>
	<path fill="#900F4F" d="M56.93,182.485c0,14.34-11.625,25.966-25.965,25.966C16.625,208.451,5,196.825,5,182.485
		c0-14.339,11.625-25.965,25.965-25.965C45.305,156.521,56.93,168.146,56.93,182.485z"/>
</g>
<text transform="matrix(1 0 0 1 23.3818 199.3281)" fill="#FFFFFF" font-family="'Poppins-Regular'" font-size="51.176">W</text>
<text transform="matrix(1 0 0 1 61.499 196.2822)" font-family="'Maven Pro', sans-serif" font-size="44">Hopes</text>
</svg>
